<svg width="12" height="13" viewBox="0 0 12 13" fill="none" xmlns="http://www.w3.org/2000/svg">
<path d="M4.17011 4.16913C4.65419 3.68504 5.31076 3.41309 5.99536 3.41309C6.67996 3.41309 7.33652 3.68504 7.82061 4.16913C8.3047 4.65322 8.57666 5.30978 8.57666 5.99438C8.57666 6.67899 8.3047 7.33555 7.82061 7.81964C7.33652 8.30372 6.67996 8.57568 5.99536 8.57568C5.31076 8.57568 4.65419 8.30372 4.17011 7.81964C3.68602 7.33555 3.41406 6.67899 3.41406 5.99438C3.41406 5.30978 3.68602 4.65322 4.17011 4.16913ZM4.22634 7.76274C4.69551 8.23191 5.33185 8.49549 5.99536 8.49549C6.65887 8.49549 7.29521 8.23191 7.76438 7.76274C8.23356 7.29357 8.49714 6.65723 8.49714 5.99372C8.49714 5.3302 8.23356 4.69387 7.76438 4.22469C7.29521 3.75552 6.65887 3.49194 5.99536 3.49194C5.33185 3.49194 4.69551 3.75552 4.22634 4.22469C3.75716 4.69387 3.49358 5.3302 3.49358 5.99372C3.49358 6.65723 3.75716 7.29357 4.22634 7.76274Z" fill="#444444" stroke="black"/>
<path d="M10.6365 1.36121C10.8889 1.61347 11.0859 1.91554 11.215 2.24814C11.3721 2.66621 11.4559 3.10822 11.4627 3.55477L11.4629 3.56554L11.4635 3.5763C11.4998 4.19677 11.5 4.38825 11.5 6.01932C11.5 7.64365 11.4914 7.83866 11.4632 8.46923L11.463 8.46922L11.4628 8.48153C11.4539 8.92273 11.371 9.35754 11.2164 9.76987C11.087 10.1025 10.8899 10.4045 10.6375 10.6569C10.3853 10.9092 10.0833 11.1062 9.75079 11.2356C9.33819 11.3898 8.90247 11.4732 8.46207 11.4821L8.45277 11.4823L8.44349 11.4828C7.82409 11.5185 7.63039 11.5187 6 11.5187C4.37899 11.5187 4.18176 11.5101 3.55259 11.4826L3.54955 11.4825L3.54955 11.4825L3.5442 11.4823C3.10219 11.4677 2.6659 11.3779 2.25411 11.2166L2.25222 11.2158C1.91862 11.0867 1.61563 10.8895 1.36259 10.6366C1.11021 10.3844 0.913061 10.0825 0.783678 9.74999C0.629019 9.33686 0.546062 8.902 0.537216 8.46088L0.537024 8.45128L0.536463 8.44169C0.500155 7.82122 0.5 7.62907 0.5 5.99867C0.5 4.37434 0.508632 4.17933 0.536818 3.54876L0.536976 3.54877L0.537221 3.53621C0.545834 3.09588 0.629197 2.66022 0.783745 2.24783C0.912712 1.91524 1.10963 1.61319 1.36193 1.36099C1.61432 1.10869 1.91657 0.911838 2.24936 0.783C2.66112 0.628036 3.0963 0.544465 3.53618 0.535889L3.54543 0.535709L3.55466 0.535187C4.17436 0.500146 4.36833 0.5 5.99867 0.5C7.62269 0.5 7.81779 0.507975 8.44912 0.535509L8.44911 0.535642L8.46064 0.535879C8.90114 0.544923 9.33692 0.628506 9.7495 0.783075C10.0821 0.912093 10.3842 1.10898 10.6365 1.36121ZM11.1324 9.71938C11.2276 9.46112 11.2948 9.19388 11.333 8.92226H11.3558L11.3773 8.44472C11.4065 7.79643 11.4065 7.6096 11.4065 6.00184V5.98734C11.4065 4.36628 11.3992 4.17525 11.3703 3.53612C11.3624 3.10285 11.282 2.67393 11.1326 2.26714L11.1326 2.26712L11.1297 2.25938C11.0044 1.93519 10.8127 1.64077 10.567 1.39502C10.3212 1.14927 10.0268 0.957617 9.70264 0.832359L9.70265 0.832323L9.6968 0.830143C9.29025 0.678874 8.86085 0.598244 8.42718 0.591708C7.77737 0.554864 7.58863 0.554864 5.9922 0.554864H5.97468C4.35368 0.554864 4.16245 0.562823 3.52403 0.591685C3.09008 0.598661 2.66043 0.679183 2.25337 0.829843L2.25336 0.829814L2.24819 0.831794C1.59078 1.08342 1.06949 1.60112 0.815063 2.2593L0.815007 2.25928L0.812328 2.26654C0.660999 2.67679 0.58054 3.10976 0.574363 3.54693C0.538871 4.19777 0.538871 4.38505 0.538872 5.98251V5.99933C0.538872 7.61927 0.545489 7.81117 0.574385 8.44989C0.582298 8.88316 0.662643 9.31208 0.812108 9.71887L0.812038 9.71889L0.815153 9.72694C0.940931 10.0518 1.13351 10.3467 1.38043 10.5925C1.62735 10.8382 1.92311 11.0294 2.24858 11.1537L2.24858 11.1537L2.25256 11.1552C2.65889 11.3064 3.08804 11.387 3.52148 11.3936C4.17199 11.4305 4.36 11.4305 5.95727 11.4305H5.97468C7.5941 11.4305 7.78675 11.4232 8.42468 11.3937C8.85903 11.3871 9.28909 11.3065 9.69639 11.1553L9.6964 11.1554L9.70229 11.1531C10.0266 11.0281 10.3211 10.8366 10.567 10.5909C10.8128 10.3452 11.0045 10.0508 11.1297 9.72655L11.1297 9.72657L11.1324 9.71938Z" fill="#444444" stroke="black"/>
</svg>
